<svg width="24" height="24" viewBox="0 0 24 24" fill="none" xmlns="http://www.w3.org/2000/svg">
<path d="M5.62906 17.1491C5.29165 17.4865 5.29165 18.0335 5.62906 18.3709C5.96647 18.7083 6.51353 18.7083 6.85094 18.3709L5.62906 17.1491ZM12.6109 12.6109C12.9483 12.2735 12.9483 11.7265 12.6109 11.3891C12.2735 11.0516 11.7265 11.0516 11.3891 11.3891L12.6109 12.6109ZM11.3891 11.3891C11.0517 11.7265 11.0517 12.2735 11.3891 12.6109C11.7265 12.9483 12.2735 12.9483 12.6109 12.6109L11.3891 11.3891ZM18.3709 6.85091C18.7083 6.5135 18.7083 5.96644 18.3709 5.62903C18.0335 5.29162 17.4865 5.29162 17.1491 5.62903L18.3709 6.85091ZM12.6109 11.3891C12.2735 11.0516 11.7265 11.0516 11.3891 11.3891C11.0517 11.7265 11.0517 12.2735 11.3891 12.6109L12.6109 11.3891ZM17.1491 18.3709C17.4865 18.7083 18.0335 18.7083 18.3709 18.3709C18.7083 18.0335 18.7083 17.4865 18.3709 17.1491L17.1491 18.3709ZM11.3891 12.6109C11.7265 12.9483 12.2735 12.9483 12.6109 12.6109C12.9483 12.2735 12.9483 11.7265 12.6109 11.3891L11.3891 12.6109ZM6.85094 5.62903C6.51353 5.29162 5.96647 5.29162 5.62906 5.62903C5.29165 5.96644 5.29165 6.5135 5.62906 6.85091L6.85094 5.62903ZM6.85094 18.3709L12.6109 12.6109L11.3891 11.3891L5.62906 17.1491L6.85094 18.3709ZM12.6109 12.6109L18.3709 6.85091L17.1491 5.62903L11.3891 11.3891L12.6109 12.6109ZM11.3891 12.6109L17.1491 18.3709L18.3709 17.1491L12.6109 11.3891L11.3891 12.6109ZM12.6109 11.3891L6.85094 5.62903L5.62906 6.85091L11.3891 12.6109L12.6109 11.3891Z" fill="#111111"/>
</svg>
